<svg xmlns="http://www.w3.org/2000/svg" xmlns:xlink="http://www.w3.org/1999/xlink" id="BCS" x="0" y="0" version="1.1" viewBox="0 0 32 32" xml:space="preserve" style="enable-background:new 0 0 32 32"><style type="text/css">.st0{fill:#d4fbff}.st1{fill:#fff}.st2{fill:url(#SVGID_1_)}.st3{opacity:.3;fill:url(#SVGID_2_)}.st4{fill:url(#SVGID_3_)}</style><g><path d="M29.2,7.1L17.3,0.2c-0.4-0.3-1-0.3-1.4,0L3.9,7.1c0,0,0.2,0.2,0.3,0.7c0.1,0.4,0.1,0.8,0.1,0.8l11.6,6.7 c0.4,0.3,1,0.3,1.4,0l11.9-6.9C29.7,8,29.7,7.4,29.2,7.1z" class="st0"/><path d="M17.9,16.3l11.9-6.9c0.5-0.3,1.1,0.1,1.1,0.6v13.8c0,0.5-0.3,1-0.7,1.2l-11.9,6.9c-0.5,0.3-1.1-0.1-1.1-0.6 V17.5C17.2,17,17.4,16.5,17.9,16.3z" class="st0"/><path d="M21.6,17.3c0-0.6,0.5-1.4,1.1-1.8c0.6-0.4,1.1-0.1,1.1,0.5s-0.5,1.4-1.1,1.8S21.6,17.9,21.6,17.3z" class="st1"/><linearGradient id="SVGID_1_" x1="8.027" x2="8.027" y1="31.966" y2="6.652" gradientUnits="userSpaceOnUse"><stop offset="0" style="stop-color:#0054d4"/><stop offset="1" style="stop-color:#00d3ff"/></linearGradient><path d="M15.2,16.3L3.4,9.4c0.5-0.8,0.3-2-0.4-2.8c-1.3,0.3-1,1.9-1,1.9C0.8,8.2,0.2,8.7,0.1,8.8 c0.4,1,1.4,1.4,2.1,1.3v13.6c0,0.5,0.3,1,0.7,1.2l11.9,6.9c0.5,0.3,1.1-0.1,1.1-0.6V17.5C15.9,17,15.7,16.5,15.2,16.3z" class="st2"/><linearGradient id="SVGID_2_" x1="20.503" x2="30.881" y1="21.481" y2="21.481" gradientUnits="userSpaceOnUse"><stop offset="0" style="stop-color:#2d7f56"/><stop offset="1" style="stop-color:#27b4a4"/></linearGradient><path d="M22.6,29.3c1-1.2,1.4-2.5,1.4-2.5c0,0.1,0.3,0.2,0.3,0.5c0,0.3,0.5,0.5,0.6,0.2c1.1-1.8,0.3-4.4,0-5.2 c0.1-0.9,0.1-1.7,0.3-2.7c0.5-2.1,1.7-3.4,3.5-4.5c1.7-1.1,2.1-2.7,2.1-2.7l-7,5.4c0-0.5-3.4,12.8-3.4,12.8S22.5,29.4,22.6,29.3z" class="st3"/><linearGradient id="SVGID_3_" x1="24.027" x2="24.027" y1="31.966" y2="9.268" gradientUnits="userSpaceOnUse"><stop offset="0" style="stop-color:#0054d4"/><stop offset="1" style="stop-color:#00d3ff"/></linearGradient><path d="M29.8,9.4l-11.9,6.9c-0.4,0.3-0.7,0.7-0.7,1.2v13.8c0,0.5,0.6,0.9,1.1,0.6c0,0,1.8-1,2.3-1.3 c1.7-1,3.4-4.3,3.4-4.4c0.1,0.3,0.1,0.6,0.1,0.9c0,0.3,0.4,0.4,0.6,0.2c1.3-2,0.3-4.8,0.2-4.9c0.1-0.9,0.2-1.8,0.5-2.8 c0.5-2.1,1.8-3.4,3.5-4.5c1.7-1.1,2.2-2.7,2.2-2.7V10C30.9,9.4,30.3,9.1,29.8,9.4z M21.6,17.3c0-0.6,0.5-1.4,1.1-1.8 c0.6-0.4,1.1-0.1,1.1,0.5s-0.5,1.4-1.1,1.8S21.6,17.9,21.6,17.3z" class="st4"/></g></svg>