<svg xmlns="http://www.w3.org/2000/svg" xmlns:xlink="http://www.w3.org/1999/xlink" style="enable-background:new 0 0 1024 1024" x="0" y="0" version="1.1" viewBox="0 0 1024 1024" xml:space="preserve"><style type="text/css">.st1{fill:#737987}</style><g id="ANDRIOD"><g><g><path d="M211.3,397c10.6,0,19.3,8.6,19.3,19.3v215c0,10.6-8.6,19.3-19.3,19.3S192,642,192,631.3v-215 C192,405.7,200.6,397,211.3,397 M211.3,365c-28.4,0-51.3,23-51.3,51.3v215c0,28.5,23,51.3,51.3,51.3c28.5,0,51.3-23,51.3-51.3 v-215C262.5,388.1,239.5,365,211.3,365L211.3,365z" class="st1"/></g><g><path d="M812.7,397c10.6,0,19.3,8.6,19.3,19.3v215c0,10.6-8.6,19.3-19.3,19.3c-10.6,0-19.3-8.6-19.3-19.3v-215 C793.5,405.7,802.1,397,812.7,397 M812.7,365c-28.4,0-51.3,23-51.3,51.3v215c0,28.5,23,51.3,51.3,51.3c28.4,0,51.3-23,51.3-51.3 v-215C864,387.9,841,365,812.7,365L812.7,365z" class="st1"/></g><g><path d="M710,407v301.1c0,12.6-10.4,22.8-23.3,22.8H649h-32v32v113.7c0,10.6-8.8,19.2-19.6,19.2 c-10.8,0-19.6-8.6-19.6-19.2V762.9v-32h-32H476h-32v32v113.7c0,10.9-8.6,19.5-19.6,19.5c-10.8,0-19.6-8.6-19.6-19.2V763.2v-32 h-32h-37.5c-12.8,0-23.2-10.2-23.2-22.8V407.2L710,407 M742,375l-462,0.2v333.1c0,30.2,24.6,54.8,55.2,54.8h37.5v113.7 c0,28.2,23.2,51.2,51.6,51.2c28.6,0,51.6-23,51.6-51.5V762.9h69.8v113.7c0,28.2,23.2,51.2,51.6,51.2c28.6,0,51.6-23,51.6-51.2 V762.9h37.7c30.5,0,55.3-24.4,55.3-54.8V375L742,375z" class="st1"/></g><g><path d="M511,176.6c30.6,0,60.1,6.2,87.6,18.5l5.2,2.3l5.8,3c30.2,15.6,55.5,38.2,73.1,65.3 c11.9,18.3,20,38.4,24.2,59.3H315.2c4.1-20.9,12.3-40.9,24.3-59.2c17.7-27.1,43-49.7,73.3-65.4l7.4-3.8l3.8-1.7 C450.9,182.7,480.2,176.6,511,176.6 M654,95.9c-2.5,0-5,1.3-6.3,3.8l-36.1,66.2c-30.5-13.6-64.5-21.2-100.6-21.2 c-35.9,0-69.9,7.5-100.2,21l-36.1-66c-1.3-2.4-3.8-3.7-6.4-3.7c-1.1,0-2.2,0.3-3.3,0.8c-3.4,1.8-4.7,6.3-2.9,9.7l35.9,65.5 C327.6,208.3,280,277.5,280,357h462c0-79.5-47.4-148.7-117.8-185.1l35.9-65.5c1.8-3.4,0.7-7.7-2.7-9.7 C656.3,96.1,655.2,95.9,654,95.9L654,95.9z" class="st1"/></g></g><g><path d="M406.6,273.1c-10.6,0-19.4-8.6-19.4-19.4c0-10.6,8.6-19.4,19.4-19.4c10.6,0,19.4,8.8,19.4,19.4 C426,264.3,417.4,273.1,406.6,273.1z" class="st1"/></g><g><path d="M617.2,273.1c-10.6,0-19.4-8.6-19.4-19.4c0-10.6,8.6-19.4,19.4-19.4c10.6,0,19.4,8.8,19.4,19.4 C636.6,264.3,627.8,273.1,617.2,273.1z" class="st1"/></g></g></svg>