<svg xmlns="http://www.w3.org/2000/svg" xmlns:xlink="http://www.w3.org/1999/xlink" style="enable-background:new 0 0 1024 1024" x="0" y="0" version="1.1" viewBox="0 0 1024 1024" xml:space="preserve"><style type="text/css">.st1{fill:#737987}</style><g id="C_x2B__x2B_"><g><path d="M512,127.8l332.8,192.1l0,384.2L512,896.2L179.2,704.1l0-384.2L512,127.8C512,127.8,512,127.8,512,127.8 M512,63.8c-11,0-22.1,2.9-32,8.6L147.2,264.5c-19.8,11.4-32,32.6-32,55.4v384.2c0,22.9,12.2,44,32,55.4L480,951.7 c9.9,5.7,20.9,8.6,32,8.6s22.1-2.9,32-8.6l332.8-192.1c19.8-11.4,32-32.6,32-55.4V319.9c0-22.9-12.2-44-32-55.4L544,72.3 C534.1,66.6,523,63.8,512,63.8L512,63.8z" class="st1"/></g><g><path d="M375.3,448c17.1,0,33.2,6.7,45.3,18.7l45.3-45.3c-24.2-24.2-56.3-37.5-90.5-37.5c-34.2,0-66.3,13.3-90.5,37.5 c-49.9,49.9-49.9,131.1,0,181c24.2,24.2,56.3,37.5,90.5,37.5c34.2,0,66.3-13.3,90.5-37.5l-45.3-45.3 c-12.1,12.1-28.2,18.7-45.3,18.7c-17.1,0-33.2-6.7-45.3-18.7c-25-25-25-65.6,0-90.5C342.1,454.7,358.2,448,375.3,448z" class="st1"/><polygon points="553.5 442.5 521.5 442.5 521.5 496 468 496 468 528 521.5 528 521.5 581.5 553.5 581.5 553.5 528 607 528 607 496 553.5 496" class="st1"/><polygon points="786 496 732.5 496 732.5 442.5 700.5 442.5 700.5 496 647 496 647 528 700.5 528 700.5 581.5 732.5 581.5 732.5 528 786 528" class="st1"/></g></g></svg>