<svg xmlns="http://www.w3.org/2000/svg" xmlns:xlink="http://www.w3.org/1999/xlink" id="图层_2" x="0" y="0" version="1.1" viewBox="0 0 1024 1024" xml:space="preserve" style="enable-background:new 0 0 1024 1024"><style type="text/css">.st0{fill:#7a8193}</style><g id="邮件"><path d="M928,192H96c-17.7,0-32,14.3-32,32v576c0,17.7,14.3,32,32,32h832c17.7,0,32-14.3,32-32V224 C960,206.3,945.7,192,928,192z M838.3,256L529.8,461.8c-10.8,7.2-24.7,7.2-35.5,0L185.7,256H838.3z M128,768V294.5l330.7,220.6 c16.2,10.8,34.7,16.2,53.3,16.2s37.1-5.4,53.3-16.2L896,294.5V768H128z" class="st0"/></g></svg>