<svg xmlns="http://www.w3.org/2000/svg" xmlns:xlink="http://www.w3.org/1999/xlink" id="图层_1" x="0" y="0" version="1.1" viewBox="0 0 1024 1024" xml:space="preserve" style="enable-background:new 0 0 1024 1024"><style type="text/css">.st0{fill:#3c6bdc}.st1{fill:#23b9fb}.st2{fill:#e1efe8}</style><g id="图层_5"><g><rect width="64" height="832" x="255.5" y="95.5" class="st0"/><rect width="64" height="832" x="404.5" y="95.5" class="st0"/><rect width="64" height="832" x="553.5" y="95.5" class="st0"/><rect width="64" height="832" x="702.5" y="95.5" class="st0"/></g><g><rect width="832" height="64" x="95" y="256" class="st0"/><rect width="832" height="64" x="95" y="405" class="st0"/><rect width="832" height="64" x="95" y="554" class="st0"/><rect width="832" height="64" x="95" y="703" class="st0"/></g><path d="M801,832H225c-17.7,0-32-14.3-32-32V224c0-17.7,14.3-32,32-32h576c17.7,0,32,14.3,32,32v576 C833,817.7,818.7,832,801,832z" class="st1"/><path d="M652.7,675.9H387.9c-17.6,0-32-14.4-32-32V377.8c0-17.6,14.4-32,32-32h264.8c17.6,0,32,14.4,32,32v266.1 C684.7,661.5,670.3,675.9,652.7,675.9z" class="st2"/></g></svg>