<svg xmlns="http://www.w3.org/2000/svg" xmlns:xlink="http://www.w3.org/1999/xlink" id="图层_1" x="0" y="0" version="1.1" viewBox="0 0 1024 1024" xml:space="preserve" style="enable-background:new 0 0 1024 1024"><style type="text/css">.st0{fill:#3e77fe}.st1{fill:#00abff}.st2{fill:#34dee0}.st3{fill:#34a975}.st4{fill:#f32b60}.st5{fill:#ff6c00}.st6{fill:#ffcb00}.st7{fill:#f6ae01}</style><path d="M160,785c-17.7,0-32-14.3-32-32V611c0-17.7,14.3-32,32-32s32,14.3,32,32v142C192,770.7,177.7,785,160,785z" class="st0"/><path d="M260.6,785c-17.7,0-32-14.3-32-32V541c0-17.7,14.3-32,32-32s32,14.3,32,32v212C292.6,770.7,278.2,785,260.6,785	z" class="st1"/><path d="M361.1,785c-17.7,0-32-14.3-32-32V431c0-17.7,14.3-32,32-32s32,14.3,32,32v322C393.1,770.7,378.8,785,361.1,785	z" class="st2"/><path d="M461.7,785c-17.7,0-32-14.3-32-32V541c0-17.7,14.3-32,32-32s32,14.3,32,32v212C493.7,770.7,479.4,785,461.7,785	z" class="st3"/><path d="M562.3,785c-17.7,0-32-14.3-32-32V611c0-17.7,14.3-32,32-32s32,14.3,32,32v142C594.3,770.7,580,785,562.3,785z" class="st4"/><path d="M662.9,785c-17.7,0-32-14.3-32-32V451c0-17.7,14.3-32,32-32s32,14.3,32,32v302C694.9,770.7,680.5,785,662.9,785	z" class="st5"/><path d="M763.4,785c-17.7,0-32-14.3-32-32V361c0-17.7,14.3-32,32-32s32,14.3,32,32v392C795.4,770.7,781.1,785,763.4,785	z" class="st6"/><path d="M864,785c-17.7,0-32-14.3-32-32V271c0-17.7,14.3-32,32-32s32,14.3,32,32v482C896,770.7,881.7,785,864,785z" class="st7"/></svg>