<svg xmlns="http://www.w3.org/2000/svg" xmlns:xlink="http://www.w3.org/1999/xlink" id="Layer_1" x="0" y="0" version="1.1" viewBox="0 0 832 832" xml:space="preserve" style="enable-background:new 0 0 832 832"><style type="text/css">.st0{fill:url(#SVGID_1_)}.st1{opacity:.7;enable-background:new}.st1,.st2,.st3{fill:#fff}.st3{opacity:.8;enable-background:new}</style><title>蓝鲸系列logo</title><g id="图层_5"><linearGradient id="SVGID_1_" x1="416.02" x2="416.02" y1="26" y2="818.65" gradientTransform="matrix(1 0 0 -1 0 834.78)" gradientUnits="userSpaceOnUse"><stop offset="0" style="stop-color:#4ac0fb"/><stop offset="1" style="stop-color:#4297fb"/></linearGradient><path d="M832,710.2C832,778,781.9,832,720,832h-608C50.1,832,0,778,0,710.2V122.8C0,55,50.1,0,112,0h608 c61.8,0,112,55,112,122.8L832,710.2z" class="st0"/><polygon points="352 640 472 192 549 192 429 640" class="st1"/><rect width="142" height="77" x="585" y="449" class="st1"/><polygon points="561 526 472 192 549 192 638 526" class="st2"/><polygon points="352 640 255 282 332 282 429 640" class="st2"/><polygon points="189 526 105 526 105 449 210 449" class="st2"/><polygon points="189 526 255 282 332 282 266 526" class="st3"/></g></svg>